<?xml version="1.0" encoding="UTF-8"?>
<!DOCTYPE svg PUBLIC "-//W3C//DTD SVG 1.1//EN" "http://www.w3.org/Graphics/SVG/1.1/DTD/svg11.dtd">
<!-- Creator: CorelDRAW 2019 (64-Bit) -->
<svg xmlns="http://www.w3.org/2000/svg" xml:space="preserve" width="2480px" height="2207px" version="1.1" style="shape-rendering:geometricPrecision; text-rendering:geometricPrecision; image-rendering:optimizeQuality; fill-rule:evenodd; clip-rule:evenodd"
viewBox="0 0 51.89 46.17"
 xmlns:xlink="http://www.w3.org/1999/xlink">
 <defs>
  <style type="text/css">
   <![CDATA[
    .fil0 {fill:#FEFEFE}
   ]]>
  </style>
 </defs>
 <g id="Capa_x0020_1">
  <metadata id="CorelCorpID_0Corel-Layer"/>
  <path class="fil0" d="M47.78 4.52c-2.69,-2.92 -6.38,-4.52 -10.38,-4.52 -3,0 -5.74,0.95 -8.16,2.81 -1.22,0.95 -2.32,2.1 -3.29,3.45 -0.98,-1.35 -2.08,-2.5 -3.3,-3.45 -2.41,-1.86 -5.16,-2.81 -8.15,-2.81 -4.01,0 -7.7,1.6 -10.38,4.52 -2.66,2.88 -4.12,6.81 -4.12,11.08 0,4.38 1.64,8.4 5.15,12.64 3.14,3.79 7.65,7.64 12.88,12.09 1.79,1.52 3.81,3.25 5.91,5.08 0.56,0.49 1.27,0.76 2.01,0.76 0.74,0 1.45,-0.27 2,-0.75 2.1,-1.84 4.13,-3.57 5.91,-5.09 5.23,-4.45 9.75,-8.3 12.89,-12.09 3.51,-4.24 5.14,-8.26 5.14,-12.64 0,-4.27 -1.46,-8.2 -4.11,-11.08l0 0zm0 0z"/>
 </g>
</svg>
