<?xml version="1.0" encoding="UTF-8"?>
<!DOCTYPE svg PUBLIC "-//W3C//DTD SVG 1.1//EN" "http://www.w3.org/Graphics/SVG/1.1/DTD/svg11.dtd">
<!-- Creator: CorelDRAW 2019 (64-Bit) -->
<svg xmlns="http://www.w3.org/2000/svg" xml:space="preserve" width="2206px" height="2204px" version="1.1" style="shape-rendering:geometricPrecision; text-rendering:geometricPrecision; image-rendering:optimizeQuality; fill-rule:evenodd; clip-rule:evenodd"
viewBox="0 0 198.6 198.49"
 xmlns:xlink="http://www.w3.org/1999/xlink"
 xmlns:serif="http://www.serif.com/">
 <defs>
  <style type="text/css">
   <![CDATA[
    .fil0 {fill:#DBDBDB;fill-rule:nonzero}
   ]]>
  </style>
 </defs>
 <g id="Capa_x0020_1">
  <metadata id="CorelCorpID_0Corel-Layer"/>
  <g id="_2093686550432">
   <g id="Commons-logo_sister">
   </g>
   <g id="MediaWiki-logo_sister">
   </g>
   <g id="Wikispecies-logo_sister">
   </g>
   <g id="Wiktionary-logo_sister">
   </g>
   <g>
    <path class="fil0" d="M196.03 176.18l-52.6 -52.61 -3.68 -2.18c9.28,-12.96 14.24,-28.52 14.2,-44.46 -0.06,-42.18 -34.75,-76.87 -76.92,-76.93 -0.04,0 -0.07,0 -0.1,0 -42.2,0 -76.93,34.73 -76.93,76.93 0,20.44 8.15,40.06 22.63,54.49 14.42,14.42 34,22.53 54.4,22.53 15.97,0 31.56,-5 44.56,-14.3l2.08 3.78 52.61 52.61c4.17,3.96 11.91,3.07 17.47,-2.39 5.46,-5.56 6.45,-13.3 2.28,-17.56l0 0.09zm-119 -50.22c-26.91,0 -49.04,-22.14 -49.04,-49.03 0.11,-26.85 22.19,-48.88 49.04,-48.94 26.85,0 48.97,22.07 49.02,48.94 0,26.89 -22.13,49.03 -49.02,49.03z"/>
   </g>
  </g>
 </g>
</svg>
